<svg width="58" height="58" viewBox="0 0 58 58" fill="none" xmlns="http://www.w3.org/2000/svg">
<path d="M29 0C12.963 0 0 12.963 0 29C0 45.037 12.963 58 29 58C45.037 58 58 45.037 58 29C58 12.963 45.037 0 29 0ZM41.47 41.47C41.2017 41.7388 40.883 41.9521 40.5322 42.0977C40.1814 42.2432 39.8053 42.3181 39.4255 42.3181C39.0457 42.3181 38.6696 42.2432 38.3188 42.0977C37.968 41.9521 37.6493 41.7388 37.381 41.47L29 33.089L20.619 41.47C20.0768 42.0122 19.3413 42.3169 18.5745 42.3169C17.8077 42.3169 17.0722 42.0122 16.53 41.47C15.9878 40.9278 15.6831 40.1923 15.6831 39.4255C15.6831 39.0458 15.7579 38.6698 15.9032 38.319C16.0485 37.9682 16.2615 37.6495 16.53 37.381L24.911 29L16.53 20.619C15.9878 20.0768 15.6831 19.3413 15.6831 18.5745C15.6831 17.8077 15.9878 17.0722 16.53 16.53C17.0722 15.9878 17.8077 15.6831 18.5745 15.6831C19.3413 15.6831 20.0768 15.9878 20.619 16.53L29 24.911L37.381 16.53C37.6495 16.2615 37.9682 16.0485 38.319 15.9032C38.6698 15.7579 39.0458 15.6831 39.4255 15.6831C39.8052 15.6831 40.1812 15.7579 40.532 15.9032C40.8828 16.0485 41.2015 16.2615 41.47 16.53C41.7385 16.7985 41.9515 17.1172 42.0968 17.468C42.2421 17.8188 42.3169 18.1948 42.3169 18.5745C42.3169 18.9542 42.2421 19.3302 42.0968 19.681C41.9515 20.0318 41.7385 20.3505 41.47 20.619L33.089 29L41.47 37.381C42.572 38.483 42.572 40.339 41.47 41.47Z" fill="#CC0000"/>
</svg>
